<?xml version="1.0" encoding="utf-8"?>
<!-- Generator: Adobe Illustrator 26.1.0, SVG Export Plug-In . SVG Version: 6.00 Build 0)  -->
<svg version="1.1" id="Layer_1" xmlns="http://www.w3.org/2000/svg" xmlns:xlink="http://www.w3.org/1999/xlink" x="0px" y="0px"
	 viewBox="0 0 500 120" style="enable-background:new 0 0 500 120;" xml:space="preserve">
<style type="text/css">
	.st0{fill:#F7E2C9;}
</style>
<g>
	<g>
		<g>
			<path class="st0" d="M294.82,57.63c-8.22-6.86-20.18-6.26-23.49-6.8c0.67-1.49,5.76-10.11,10.94-17.28
				c1.91-2.65,2.01-4.88,0.42-6.3c-1.69-1.48-4.19-1.04-6.45,1.4c-1.73,1.88-3.39,3.88-4.79,6.02c-2.78,4.31-5.41,8.71-8,13.15
				c-1.38,2.4-3.18,3.68-6.04,4.05c-1.58,0.22-2.76,0.48-4.08,0.94c-1.5,0.53-2.64,1.55-2.7,3.3c-0.07,1.81,0.72,3.2,2.4,3.89
				c0.67,0.27,1.06,0.47,4.14,0.4c-0.77,1.82-9.72,16.59-15.85,33.27c-0.03,0.02-0.06,0.04-0.1,0.05c-2.56-1.72-4.53-4.21-5.54-7.95
				c-0.13-0.54-0.54-1.03-0.91-1.46c-1.71-1.9-4.4-1.63-5.47,0.7c-0.5,1.08-0.64,2.48-0.5,3.69c0.41,3.33,1.96,6.18,4.26,8.64
				c1.7,1.83,3.24,3.06,5.29,4.17c0.06-0.13,0.13,0.05,0,0c-3.15,5.96,5.66,9.53,7.74,2.93c0.05-0.13-0.06-0.06,0.23,0.01
				c11.13,2.62,22.25,2.23,33.34-0.69c6.9-1.81,12.95-5.15,17.97-10.31C308.36,82.45,305.95,66.92,294.82,57.63z M293.04,86.3
				c-2.99,3.73-6.82,6.38-11.2,8.18c-10.35,4.29-21.05,4.43-31.93,2.42c-0.42-0.08-0.85-0.16-1.26-0.26
				c-0.02,0.02-0.03,0.03-0.05,0.04c0-0.02,0-0.04,0-0.06l0.05,0.02c3.31-7.88,13.83-33.85,21.56-37.39
				c2.89-1.32,11.03-2.36,19.82,4.35C297.65,69.47,299.07,78.84,293.04,86.3z"/>
			<path class="st0" d="M80.43,58.37c-8.2-6.86-20.18-6.26-23.49-6.79c0.68-1.5,5.76-10.12,10.94-17.28c1.92-2.66,2-4.88,0.42-6.3
				c-1.68-1.48-4.18-1.03-6.43,1.41c-1.74,1.88-3.39,3.87-4.78,6.02c-2.8,4.31-5.44,8.7-8.01,13.14c-1.4,2.4-3.18,3.67-6.06,4.06
				c-1.59,0.21-2.76,0.47-4.07,0.94c-1.51,0.53-2.64,1.54-2.71,3.31c-0.07,1.81,0.72,3.19,2.43,3.88c0.67,0.27,1.05,0.46,4.11,0.39
				c-0.77,1.83-9.71,16.59-15.84,33.28c-0.03,0.01-0.07,0.03-0.1,0.05c-2.57-1.72-4.51-4.21-5.53-7.93
				c-0.14-0.55-0.54-1.05-0.92-1.48c-1.72-1.9-4.41-1.63-5.46,0.7c-0.5,1.09-0.66,2.5-0.5,3.71c0.4,3.34,1.95,6.18,4.24,8.64
				c1.71,1.83,3.24,3.05,5.3,4.16c0.07-0.12,0.11,0.06,0,0c-3.16,5.97,5.65,9.54,7.73,2.94c0.05-0.13-0.05-0.06,0.24,0
				c11.12,2.63,22.25,2.25,33.32-0.67c6.91-1.83,12.98-5.16,17.99-10.31C93.97,83.2,91.57,67.67,80.43,58.37z M78.68,87.06
				c-3.02,3.72-6.84,6.38-11.2,8.19c-10.37,4.29-21.08,4.42-31.95,2.41c-0.42-0.08-0.83-0.18-1.26-0.26
				c-0.01,0.02-0.03,0.03-0.04,0.03c0-0.01,0-0.03,0-0.06l0.04,0.03c3.3-7.88,13.84-33.85,21.58-37.39
				c2.86-1.31,11.03-2.36,19.8,4.36C83.29,70.22,84.7,79.57,78.68,87.06z"/>
			<path class="st0" d="M24.53,62.07c2.51-0.82,3.08-3.48,1.11-5.24c-0.93-0.83-2.14-1.38-3.25-2c-4.35-2.37-5.83-6.05-4.48-10.86
				c1.66-5.9,5.86-9.76,10.62-13.01c12.64-8.63,26.78-11.69,41.88-10.69c4.64,0.31,9.17,1.53,13.28,3.93
				c7.52,4.38,8.67,11.86,2.6,18.04c-2.37,2.39-3.24,2.7-4.17,3.29c-4.99,3.23-1.32,9.28,4.09,6.3c3.91-2.14,5.65-3.75,8.47-7.31
				c4.19-5.25,4.66-11.04,2.22-17.12c-2.76-6.83-8.33-10.55-14.96-12.72c-9.99-3.27-20.26-3.12-30.47-1.36
				C38.72,15.54,27.1,20.38,17.5,29.35c-3.38,3.16-5.96,6.87-7.3,11.35c-2.47,8.22,0.55,16.61,7.24,20.43
				C19.69,62.4,22.08,62.88,24.53,62.07z"/>
			<path class="st0" d="M228.06,94.9c-0.68,0-1.36,0.19-2.05,0.58c-0.58,0.31-1.32,0.89-2.1,1.49c-0.41,0.31-0.8,0.63-1.16,0.89
				c-1.84,1.33-3.38,1.53-4.75,0.64c-1.42-0.95-1.55-2.48-1.31-4.48c0.17-1.39,0.42-2.79,0.66-4.16c0.18-1,0.36-2.03,0.51-3.07
				c0.1-0.72,0.21-1.44,0.33-2.16c0.37-2.36,0.73-4.81,0.86-7.22c0.14-3.22-1.92-5.84-4.79-6.1c-2.53-0.21-4.94-0.06-6.97,0.44
				c-4.25,1.04-8.31,3.24-12.8,6.95c-2.02,1.68-4.03,3.5-5.94,5.26c-0.55,0.5-1.12,1.03-1.68,1.54c0.11-0.32,0.22-0.65,0.33-0.97
				c2.21-6.72,5.72-11.6,10.74-14.88c2.17-1.42,4.23-3.08,6.21-4.68l0.52-0.4c12.95-10.41,21.36-19.87,27.21-30.67
				c2.63-4.85,4.11-9.59,4.49-14.49c0.2-2.45-0.52-4.68-1.99-6.28c-1.55-1.67-3.82-2.52-6.4-2.35c-3.89,0.25-6.99,2.48-9.58,4.54
				c-8.57,6.83-14.66,15.78-19.47,23.64c-8.11,13.24-14.81,27.53-19.89,42.48c-2,5.89-3.49,12.05-4.92,18.01
				c-0.25,1.07-0.51,2.14-0.79,3.2c-0.7,2.93,1.03,5.93,2.94,6.44c0.31,0.09,0.64,0.14,0.94,0.14c1.93,0,3.76-1.6,4.86-4.3
				l0.03-0.08c0.72-1.73,1.45-3.54,2.39-5.15c3.28-5.65,7.69-10.67,13.07-14.94c2.36-1.86,5.29-3.56,9.23-5.39
				c0.99-0.47,1.85-0.42,2.39,0.15c0.43,0.45,0.65,1.24,0.61,2.21c-0.03,0.76-0.18,1.55-0.34,2.31c-0.05,0.24-0.09,0.48-0.14,0.72
				c-0.2,1.07-0.42,2.19-0.64,3.25c-0.47,2.26-0.93,4.56-1.21,6.87c-0.41,3.55,0.44,6.69,2.37,8.85c1.7,1.9,4.07,2.91,6.88,2.91
				c0.59,0,1.22-0.04,1.83-0.14c2.73-0.4,5.35-1.85,7.06-2.99c1.62-1.09,2.6-1.84,4.67-3.45c0.89-0.68,1.2-1.87,0.8-3.01
				C230.62,95.75,229.44,94.9,228.06,94.9z M195.59,62.46c0.32-0.69,0.63-1.41,0.94-2.12c0.76-1.73,1.56-3.51,2.4-5.23
				c4.95-10,10.65-20.51,18.66-29.51c2.46-2.77,4.96-5.36,8.47-6.58c1.36-0.47,2.44-0.39,2.92,0.23c0.35,0.45,0.41,1.2,0.16,2.15
				c-1.03,4.12-2.22,7.22-3.7,9.75c-7.84,13.32-17.08,23.26-28.22,30.39c-0.42,0.26-0.86,0.52-1.28,0.76
				c-0.12,0.06-0.23,0.12-0.33,0.18L195.59,62.46z"/>
			<path class="st0" d="M173.86,66.3c-1.35-1.54-3.28-2.42-5.33-2.42c-0.36,0-0.73,0.02-1.08,0.08
				c-7.41,1.13-13.42,4.93-17.89,11.27c-0.6,0.85-1.17,1.7-1.76,2.57c-1.58,2.33-3.2,4.75-5.13,6.78
				c-3.91,4.14-8.17,7.93-12.92,12.1c-0.47,0.41-1.45,0.73-2.26,0.73c-0.32,0-0.58-0.06-0.72-0.14c-0.6-0.36-1.15-1.95-1.01-2.94
				l0.12-0.79c0.48-3.35,0.98-6.8,2.19-9.89c1.14-2.9,2.74-5.69,4.31-8.38c0.55-0.93,1.08-1.87,1.61-2.81
				c1.26-2.27,1.68-3.97-0.13-5.49c-0.67-0.57-1.48-0.87-2.28-0.87c-1.21,0-2.45,0.67-3.55,1.91c-1.56,1.76-2.88,3.76-3.85,5.29
				c-1.03,1.59-1.97,3.27-2.86,4.88c-2,3.56-4.07,7.26-7.03,10.24c-3.76,3.78-7.87,7.67-13.09,10.01c-0.35,0.16-0.86,0.25-1.32,0.25
				c-0.54,0-0.87-0.11-0.99-0.22c-0.36-0.3-0.55-1.33-0.43-2.38c0.1-0.95,0.62-1.96,1.02-2.76c0.78-1.52,1.58-3.05,2.36-4.52
				c1.14-2.17,2.31-4.41,3.42-6.64c2.04-4.2,3.85-8.8,3.17-13.96c-0.27-2.07-1.42-3.26-3.35-3.45c-2.01-0.21-3.58,0.75-4.31,2.63
				c-0.37,0.9-0.73,1.96-0.73,3.03c0.05,5.62-2.48,10.33-4.94,14.89c-2.09,3.88-3.71,7.18-4.93,10.67
				c-0.92,2.66-0.66,5.31,0.73,7.27c1.66,2.32,4.72,3.4,8.02,2.79c1.7-0.31,3.62-0.73,5.08-1.75c3.36-2.38,6.66-4.95,9.86-7.45
				c1.1-0.85,2.19-1.7,3.31-2.55c0.45-0.37,0.89-0.75,1.45-1.22c0.05-0.04,0.11-0.09,0.15-0.13c0,0.32,0,0.55,0.01,0.78
				c0.01,0.5,0.02,1.01,0.02,1.52c0,1.15,0,2.36,0.16,3.54c0.52,3.83,3.33,6.5,6.89,6.5c1.09,0,2.18-0.25,3.25-0.75
				c3.23-1.5,5.93-3.22,8.03-5.11c2.58-2.34,5.04-4.9,7.4-7.36c1.45-1.51,2.94-3.05,4.42-4.54c0.39-0.38,1.21-0.75,1.66-0.75
				c0.08,0,0.11,0.02,0.11,0.02c1.87,1,3.67,2.22,5.42,3.38c0.43,0.28,0.84,0.55,1.25,0.84c1.96,1.29,2.63,3.17,2.05,5.73
				c-0.53,2.27-2.8,3.98-5.26,3.89c-2.31-0.07-3.55-1.11-3.9-3.23c-0.43-2.72-1.51-3.74-3.78-3.62c-2.22,0.11-3.81,1.81-3.95,4.21
				c-0.16,2.75,1.11,4.99,3.87,6.86c2.17,1.47,4.61,2.23,7.23,2.23c2.11,0,4.36-0.47,6.87-1.43c4.78-1.82,7.47-5.33,7.83-10.15
				c0.32-4.44-1.62-7.9-5.72-10.32c-0.44-0.27-0.92-0.53-1.39-0.79c-1.1-0.59-2.23-1.22-3.19-2.01c-0.77-0.64-1.59-1.84-1.55-2.64
				c0.13-3.18,6.26-8.57,9.58-8.3c0.56,0.04,1.33,0.5,1.61,0.92c0.05,0.19-0.21,0.91-0.6,1.4c-1.7,2.15-1.82,4.15-0.32,5.51
				c0.73,0.66,1.69,1.02,2.7,1.02c1.39,0,2.65-0.71,3.36-1.91c0.97-1.63,2.22-4.14,2.6-6.91C175.65,69.58,175.1,67.75,173.86,66.3z"
				/>
			<path class="st0" d="M489.78,75.21c-0.41-0.48-1.04-0.75-1.8-0.75c-1.16,0-2.46,0.6-3.43,1.58c-0.69,0.71-1.32,1.49-1.93,2.24
				c-0.32,0.39-0.63,0.78-0.96,1.16c-1.29,1.5-2.67,3.21-4.02,4.86c-3,3.69-6.12,7.54-8.44,9.61c-3.27,2.88-4.23,3.36-6.56,4.47
				l-0.22,0.09c-0.47,0.23-0.89,0.33-1.28,0.33c-1.32,0-1.67-1.49-1.76-2.37c-0.09-1.06-0.07-2.1,0.14-2.99
				c1.3-5.94,2.57-11.76,4-17.63c0.68-2.82,0.14-5-1.67-6.68c-2.1-1.95-4.61-2.48-7.33-1.57c-6.8,2.31-11.67,7-15.52,11.3
				c-0.28,0.31-0.56,0.62-0.92,1.02c0.03-0.27,0.05-0.49,0.08-0.7c0.07-0.77,0.17-1.53,0.27-2.29c0.19-1.44,0.37-2.94,0.51-4.42
				c0.23-2.57-0.9-4.59-3.25-5.84c-3.25-1.72-6.14-1.88-8.53-0.47c-3,1.73-6.04,3.78-9.6,6.48c-1.21,0.91-2.24,2.05-3.25,3.15
				c-0.26,0.28-0.53,0.57-0.8,0.86c0.07-0.35,0.17-0.68,0.28-1.01c0.41-1.24,0.83-2.47,1.26-3.7c0.85-2.5,1.75-5.09,2.52-7.67
				c0.58-1.92-0.22-3.56-2.13-4.38c-0.62-0.25-1.24-0.39-1.81-0.39c-1.24,0-2.3,0.62-3.06,1.78c-1.01,1.56-1.76,3.28-2.37,4.75
				c-0.47,1.16-0.88,2.4-1.24,3.6c-0.77,2.42-1.5,4.71-2.89,6.52c-4.33,5.69-9.42,10.98-14.28,15.93
				c-3.72,3.83-7.57,6.28-11.75,7.52c-0.53,0.15-1.08,0.24-1.63,0.24c-2.06,0-3.72-1.18-4.24-3.01c-0.64-2.22-0.82-4.16-0.6-5.8
				c0.46-3.39,1.38-6.78,2.28-9.96c1.11-3.93,3.1-6.86,6.27-9.26c13.26-9.96,24.03-22.15,32.04-36.2c2.51-4.42,5.15-9.79,5.64-15.96
				c0.32-4.13-1.62-7.13-5.46-8.44c-0.79-0.27-1.62-0.41-2.42-0.41c-2.32,0-4.41,1.04-6.42,2.05l-0.13,0.08
				c-4.86,2.43-8.24,6.48-10.9,10.11c-10.03,13.74-18.14,29.45-24.78,48.03c-0.35,1-0.66,2.06-0.96,3.09
				c-0.58,2.03-1.19,4.13-2.25,5.86c-2.06,3.32-4.87,6.26-7.58,9.11c-2.72,2.85-6.07,6-10.41,7.74c-0.89,0.37-1.62,0.56-2.18,0.56
				c-0.91,0-1.83-0.39-1.9-3.18c-0.11-4.2,1.85-7.76,3.74-11.2c0.87-1.57,1.78-3.17,2.65-4.71c1.32-2.29,2.69-4.66,3.93-7.04
				c0.54-1,0.64-1.96,0.34-2.84c-0.34-0.99-1.2-1.81-2.48-2.39c-2.17-0.98-4.12-0.44-5.62,1.53c-0.6,0.78-1.14,1.17-1.64,1.17
				c-0.45,0-0.96-0.29-1.58-0.9c-1.73-1.72-3.74-2.55-6.18-2.55c-1.09,0-2.22,0.16-3.49,0.49c-9.11,2.43-16.51,7.92-22.61,16.76
				c-3.51,5.08-5.46,10.58-5.79,16.33c-0.13,2.41,0.53,4.53,1.86,5.93c1.12,1.2,2.66,1.84,4.43,1.84c1.16,0,2.34-0.28,3.58-0.81
				c1.57-0.69,2.77-1.38,3.74-2.16c3.17-2.59,6.35-5.27,9.42-7.84c1.54-1.3,3.1-2.59,4.65-3.88c0.5-0.43,1.04-0.82,1.57-1.21
				c0.16-0.13,0.32-0.24,0.48-0.36l0.09,0.04c-0.02,0.52-0.06,1.06-0.09,1.57c-0.07,1.35-0.17,2.74-0.21,4.12
				c-0.06,2.66,0.8,5.05,2.44,6.72c1.5,1.55,3.58,2.4,5.84,2.4c1.08,0,2.18-0.18,3.27-0.55c6.38-2.13,11.29-6.35,16.61-11.24
				c0.34-0.31,0.69-0.61,1.11-0.97c0.02-0.02,0.05-0.04,0.09-0.07c0.05,0.37,0.07,0.63,0.05,0.85c-0.27,3.49,0.95,7,3.36,9.62
				c2.4,2.61,5.82,4.11,9.36,4.11c2.2,0,4.41-0.55,6.54-1.65c6.51-3.35,11.75-7.99,16.03-12.11c0.35-0.34,0.74-0.69,1.11-1.03
				c-0.06,0.7-0.25,1.32-0.43,1.96c-0.33,0.98-0.66,1.94-0.97,2.92c-0.63,1.86-1.27,3.78-1.83,5.69c-0.69,2.33,0.59,4.81,2.87,5.54
				c0.36,0.11,0.71,0.17,1.02,0.17c1.52,0,2.2-1.22,2.8-2.33c0.1-0.17,0.19-0.35,0.31-0.52c0.08-0.15,0.14-0.31,0.22-0.46l0.07-0.15
				c0.55-1.14,1.08-2.3,1.63-3.46c1.15-2.49,2.34-5.07,3.65-7.52c4.3-8.04,10.2-14.61,17.54-19.55l0.2-0.15
				c0.71-0.48,1.44-0.98,2.22-0.98c0.37,0,0.72,0.11,1.1,0.33c1.17,0.72,1.17,1.77,0.78,3.24c-1.13,4.38-2.36,8.66-3.84,13.74
				c-0.43,1.46-0.89,2.92-1.37,4.35c-0.57,1.8-1.17,3.65-1.67,5.5c-0.65,2.34,0.58,4.63,2.91,5.46c0.45,0.16,0.85,0.23,1.24,0.23
				c1.66,0,2.48-1.38,3.21-2.59l0.06-0.11c0.43-0.69,0.8-1.41,1.1-2.11c3.58-8.09,9.04-15.56,16.69-22.82
				c1.16-1.1,2.48-2.04,3.82-2.72c0.29-0.15,0.73-0.24,1.18-0.24c0.43,0,0.82,0.09,1.06,0.24c0.19,0.13,0.38,1.13,0.23,1.94
				c-0.19,1.14-0.47,2.29-0.74,3.4c-0.28,1.17-0.58,2.38-0.79,3.59c-0.14,0.89-0.31,1.78-0.47,2.67c-0.59,3.3-1.2,6.7-1.33,10.09
				c-0.12,2.75,0.66,5.15,2.19,6.75c1.29,1.36,3.03,2.06,5.04,2.07c1.97,0,4.35-0.65,6.56-1.83c4.96-2.61,7.84-5.61,10.89-8.78
				c0.53-0.55,1.06-1.11,1.62-1.66c3.19-3.25,6.09-6.87,8.9-10.36c0.94-1.17,1.89-2.34,2.83-3.49
				C490.92,78.5,491.04,76.71,489.78,75.21z M379.11,63.69c0.19-0.55,0.36-1.09,0.55-1.64c0.44-1.4,0.92-2.85,1.51-4.19
				c4.19-9.5,9.49-20.53,17.14-30.41c2.13-2.75,4.86-5.04,6.99-6.74c0.48-0.37,1.34-0.62,2.26-0.62c0.49,0,0.95,0.07,1.26,0.18
				c0.3,0.22,0.69,2.05,0.39,2.92c-1.34,3.7-2.59,7.02-4.41,10.03c-6.88,11.39-14.45,20.75-23.13,28.59c-0.58,0.52-1.23,1-1.88,1.46
				c-0.21,0.15-0.42,0.31-0.62,0.46L379.11,63.69z M337.75,76.55c-0.05,0.36-0.16,0.92-0.29,1.07c-0.26,0.29-0.51,0.58-0.77,0.89
				c-1.4,1.63-2.85,3.34-4.49,4.76c-4.91,4.26-10.03,8.46-15,12.53l-0.97,0.79c-0.46,0.39-1.05,0.64-1.57,0.87
				c-0.18,0.07-0.34,0.15-0.47,0.21c-0.74-0.08-1.25-0.3-1.51-0.66c-0.3-0.42-0.25-1.01-0.13-1.45c0.55-2.05,1.08-4.18,2.12-5.93
				c4.4-7.46,9.61-12.69,15.95-15.94c0.82-0.43,1.83-0.74,2.82-0.86c0.07-0.01,0.12-0.01,0.18-0.01c0.57,0,1.11,0.22,1.21,0.38
				c0.16,0.25,0.3,0.5,0.43,0.75C335.85,74.96,336.45,76.03,337.75,76.55z"/>
		</g>
	</g>
	<g>
		<path class="st0" d="M490.65,33.4c0,9.22-7.18,16.45-16.4,16.45c-9.22,0-16.31-7.23-16.31-16.36s7.09-16.36,16.4-16.36
			C483.65,17.14,490.65,24.18,490.65,33.4z M488.47,33.4c0-8.06-5.98-14.18-14.13-14.18c-8.15,0-14.22,6.3-14.22,14.27
			s6.07,14.27,14.13,14.27C482.31,47.76,488.47,41.46,488.47,33.4z M478.74,36.22l4.22,6.53h-3.2l-3.84-5.93h-0.79h-4.26v5.93h-3.15
			V24.23h7.41c4.63,0,7.51,2.45,7.51,6.3C482.63,33.35,481.2,35.35,478.74,36.22z M479.57,30.53c0-2.36-1.71-3.66-4.68-3.66h-4.08
			v7.37h4.08C477.86,34.23,479.57,32.89,479.57,30.53z"/>
	</g>
</g>
</svg>
