<svg class="icon-cart" width="24" height="23" viewBox="0 0 24 23" fill="none" xmlns="http://www.w3.org/2000/svg"
  role="img" aria-labelledby="icon-cart-title icon-cart-desc">
  <title id="icon-cart-title">Cart</title>
  <desc id="icon-cart-desc">Simple cart icon</desc>
  <path d="M11 21C11 22.1046 10.1046 23 8.99999 23C7.89543 23 7 22.1046 7 21C7 19.8954 7.89543 19 8.99999 19C10.1046 19 11 19.8954 11 21Z" fill="black"/>
  <path d="M22 21C22 22.1046 21.1046 23 20 23C18.8954 23 18 22.1046 18 21C18 19.8954 18.8954 19 20 19C21.1046 19 22 19.8954 22 21Z" fill="black"/>
  <path d="M23.8 5.4C23.6 5.1 23.3 4.99999 23 4.99999H6.80002L6.00002 0.799992C5.90002 0.3 5.50003 0 5.00002 0H1.00001C0.400008 0 0 0.400008 0 1.00001C0 1.60001 0.400008 2.00002 1.00001 2.00002H4.2L4.99999 6.20002V6.30002L6.69998 14.6C6.99998 16 8.19998 17 9.59998 17C9.59998 17 9.59998 17 9.69998 17H19.4C20.9 17 22.1 16 22.4 14.6L24 6.20002C24 5.90002 24 5.60002 23.8 5.40002V5.4ZM20.4 14.2C20.3 14.7 19.9 15 19.4 15H9.69998C9.19999 15 8.79998 14.7 8.69998 14.2L7.19998 7.00001H21.8L20.4 14.2Z" fill="black"/>
</svg>