<svg class="icon-close" width="17" height="18" viewBox="0 0 17 18" fill="none" xmlns="http://www.w3.org/2000/svg">
  <path d="M10.075 9.00002L16.0375 2.81669C16.4875 2.35001 16.4875 1.65001 16.0375 1.18337C15.5875 0.716717 14.9125 0.71669 14.4625 1.18337L8.49999 7.36669L2.5375 1.18337C2.08749 0.71669 1.41249 0.71669 0.962506 1.18337C0.512524 1.65004 0.512498 2.35004 0.962506 2.81669L6.92499 9.00002L0.962506 15.1833C0.512498 15.65 0.512498 16.35 0.962506 16.8167C1.1875 17.05 1.41252 17.1667 1.75002 17.1667C2.08751 17.1667 2.31251 17.05 2.53752 16.8167L8.50001 10.6333L14.4625 16.8167C14.6875 17.05 15.025 17.1667 15.25 17.1667C15.475 17.1667 15.8125 17.05 16.0375 16.8167C16.4875 16.35 16.4875 15.65 16.0375 15.1833L10.075 9.00002H10.075Z" fill="black"/>
</svg>