<svg class="tier-star" width="16" height="16" viewBox="0 0 16 16" fill="none" xmlns="http://www.w3.org/2000/svg">
  <title>Unlocked</title>
  <circle cx="8" cy="8" r="8" fill="#F8A086"/>
  <path d="M8.16966 10.4128L10.1095 11.6418C10.3574 11.7989 10.6653 11.5652 10.5917 11.2758L10.0313 9.07109C10.0155 9.00968 10.0173 8.94507 10.0367 8.88467C10.056 8.82428 10.0919 8.77057 10.1404 8.72971L11.8799 7.28188C12.1085 7.09164 11.9905 6.71231 11.6968 6.69325L9.42516 6.54582C9.36397 6.54145 9.30528 6.51979 9.25593 6.48335C9.20658 6.44692 9.16859 6.39722 9.14639 6.34003L8.29915 4.20645C8.27612 4.14575 8.23517 4.0935 8.18174 4.05662C8.12831 4.01975 8.06492 4 8 4C7.93508 4 7.8717 4.01975 7.81826 4.05662C7.76483 4.0935 7.72388 4.14575 7.70085 4.20645L6.85361 6.34003C6.83141 6.39722 6.79342 6.44692 6.74407 6.48335C6.69472 6.51979 6.63603 6.54145 6.57484 6.54582L4.30315 6.69325C4.0095 6.71231 3.89153 7.09164 4.12009 7.28188L5.8596 8.72971C5.90808 8.77057 5.94404 8.82428 5.96335 8.88467C5.98265 8.94507 5.98452 9.00968 5.96874 9.07109L5.44898 11.1157C5.36068 11.463 5.73011 11.7434 6.02766 11.5549L7.83034 10.4128C7.88105 10.3805 7.9399 10.3634 8 10.3634C8.0601 10.3634 8.11896 10.3805 8.16966 10.4128Z" fill="white" stroke="white" stroke-width="1.5" stroke-linecap="round" stroke-linejoin="round"/>
</svg>
