<svg class="icon-twitter" width="25" height="20" viewBox="0 0 25 20" fill="none" xmlns="http://www.w3.org/2000/svg">
  <path d="M24.6635 2.36539C23.7596 2.76924 22.7837 3.03848 21.7644 3.15865C22.8077 2.53365 23.6058 1.54326 23.9856 0.365391C23.0096 0.942305 21.9279 1.36539 20.7789 1.59135C19.8558 0.610586 18.5433 0 17.0914 0C14.3029 0 12.0433 2.25961 12.0433 5.04809C12.0433 5.44232 12.0865 5.82693 12.1731 6.19713C7.97597 5.98559 4.25482 3.97598 1.76443 0.918281C1.33173 1.66348 1.08173 2.53367 1.08173 3.45674C1.08173 5.20674 1.97114 6.75482 3.32693 7.65865C2.50001 7.63461 1.72116 7.40385 1.03847 7.02885C1.03847 7.04809 1.03847 7.07211 1.03847 7.09135C1.03847 9.53846 2.77886 11.5817 5.09136 12.0433C4.66827 12.1587 4.22116 12.2212 3.75962 12.2212C3.43271 12.2212 3.12021 12.1875 2.80771 12.1298C3.45195 14.1346 5.31732 15.5962 7.52405 15.6394C5.79329 16.9952 3.62021 17.8029 1.25001 17.8029C0.84136 17.8029 0.442317 17.7788 0.0432739 17.7308C2.28366 19.1683 4.93751 20 7.78847 20C17.0769 20 22.1587 12.3029 22.1587 5.6298C22.1587 5.40865 22.1539 5.1923 22.1442 4.97596C23.1298 4.26922 23.9856 3.3798 24.6635 2.36537V2.36539Z" fill="black"/>
</svg>